<svg width="18" height="17" viewBox="0 0 18 17" fill="none" xmlns="http://www.w3.org/2000/svg">
<path d="M15.667 5.66663H10.9903L11.9262 2.86079C12.0945 2.35413 12.0095 1.79246 11.697 1.35913C11.3845 0.925793 10.8778 0.666626 10.3437 0.666626H9.00033C8.75283 0.666626 8.51866 0.776626 8.35949 0.966626L4.44283 5.66663H2.33366C1.41449 5.66663 0.666992 6.41413 0.666992 7.33329V14.8333C0.666992 15.7525 1.41449 16.5 2.33366 16.5H13.4228C13.7619 16.4988 14.0926 16.3948 14.3713 16.2017C14.65 16.0086 14.8636 15.7354 14.9837 15.4183L17.2812 9.29246C17.316 9.19889 17.3338 9.09982 17.3337 8.99996V7.33329C17.3337 6.41413 16.5862 5.66663 15.667 5.66663ZM2.33366 7.33329H4.00033V14.8333H2.33366V7.33329ZM15.667 8.84913L13.4228 14.8333H5.66699V6.80163L9.39033 2.33329H10.3453L9.04366 6.23579C9.0014 6.36105 8.98962 6.49459 9.00928 6.62531C9.02894 6.75604 9.07948 6.8802 9.15671 6.98749C9.23394 7.09479 9.33564 7.18212 9.45337 7.24226C9.57109 7.3024 9.70146 7.3336 9.83366 7.33329H15.667V8.84913Z" fill="#23DD62"/>
</svg>
