<svg width="16" height="11" viewBox="0 0 16 11" fill="none" xmlns="http://www.w3.org/2000/svg">
<path d="M15.3536 7.35355C15.5488 7.15829 15.5488 6.84171 15.3536 6.64645L12.1716 3.46447C11.9763 3.2692 11.6597 3.2692 11.4645 3.46447C11.2692 3.65973 11.2692 3.97631 11.4645 4.17157L14.2929 7L11.4645 9.82843C11.2692 10.0237 11.2692 10.3403 11.4645 10.5355C11.6597 10.7308 11.9763 10.7308 12.1716 10.5355L15.3536 7.35355ZM0.5 0V4.45455H1.5V0H0.5ZM0.5 4.45455C0.5 5.00915 0.738205 5.77908 1.40287 6.4085C2.07593 7.04587 3.14293 7.5 4.73333 7.5V6.5C3.33707 6.5 2.5374 6.10564 2.09046 5.68241C1.63513 5.25122 1.5 4.74842 1.5 4.45455H0.5ZM4.73333 7.5C4.73917 7.5 4.74501 7.5 4.75086 7.5C4.75671 7.5 4.76256 7.5 4.76843 7.5C4.7743 7.5 4.78017 7.5 4.78605 7.5C4.79193 7.5 4.79782 7.5 4.80372 7.5C4.80962 7.5 4.81552 7.5 4.82143 7.5C4.82735 7.5 4.83327 7.5 4.8392 7.5C4.84513 7.5 4.85106 7.5 4.85701 7.5C4.86295 7.5 4.8689 7.5 4.87486 7.5C4.88082 7.5 4.88679 7.5 4.89277 7.5C4.89874 7.5 4.90473 7.5 4.91072 7.5C4.91671 7.5 4.92271 7.5 4.92871 7.5C4.93472 7.5 4.94073 7.5 4.94675 7.5C4.95278 7.5 4.95881 7.5 4.96484 7.5C4.97088 7.5 4.97692 7.5 4.98298 7.5C4.98903 7.5 4.99509 7.5 5.00115 7.5C5.00722 7.5 5.0133 7.5 5.01938 7.5C5.02546 7.5 5.03155 7.5 5.03765 7.5C5.04374 7.5 5.04985 7.5 5.05596 7.5C5.06207 7.5 5.06819 7.5 5.07432 7.5C5.08044 7.5 5.08658 7.5 5.09272 7.5C5.09886 7.5 5.10501 7.5 5.11116 7.5C5.11732 7.5 5.12348 7.5 5.12965 7.5C5.13582 7.5 5.142 7.5 5.14818 7.5C5.15437 7.5 5.16056 7.5 5.16676 7.5C5.17296 7.5 5.17916 7.5 5.18538 7.5C5.19159 7.5 5.19781 7.5 5.20404 7.5C5.21027 7.5 5.2165 7.5 5.22274 7.5C5.22899 7.5 5.23523 7.5 5.24149 7.5C5.24775 7.5 5.25401 7.5 5.26028 7.5C5.26655 7.5 5.27283 7.5 5.27911 7.5C5.28539 7.5 5.29168 7.5 5.29798 7.5C5.30428 7.5 5.31058 7.5 5.31689 7.5C5.32321 7.5 5.32952 7.5 5.33585 7.5C5.34217 7.5 5.34851 7.5 5.35485 7.5C5.36118 7.5 5.36753 7.5 5.37388 7.5C5.38023 7.5 5.38659 7.5 5.39296 7.5C5.39932 7.5 5.4057 7.5 5.41208 7.5C5.41846 7.5 5.42484 7.5 5.43123 7.5C5.43763 7.5 5.44402 7.5 5.45043 7.5C5.45684 7.5 5.46325 7.5 5.46967 7.5C5.47609 7.5 5.48251 7.5 5.48894 7.5C5.49538 7.5 5.50181 7.5 5.50826 7.5C5.5147 7.5 5.52116 7.5 5.52761 7.5C5.53407 7.5 5.54054 7.5 5.54701 7.5C5.55348 7.5 5.55995 7.5 5.56644 7.5C5.57292 7.5 5.57941 7.5 5.58591 7.5C5.5924 7.5 5.59891 7.5 5.60542 7.5C5.61193 7.5 5.61844 7.5 5.62496 7.5C5.63148 7.5 5.63801 7.5 5.64455 7.5C5.65108 7.5 5.65762 7.5 5.66417 7.5C5.67071 7.5 5.67727 7.5 5.68382 7.5C5.69038 7.5 5.69695 7.5 5.70352 7.5C5.71009 7.5 5.71667 7.5 5.72325 7.5C5.72983 7.5 5.73642 7.5 5.74302 7.5C5.74961 7.5 5.75622 7.5 5.76282 7.5C5.76943 7.5 5.77604 7.5 5.78266 7.5C5.78928 7.5 5.79591 7.5 5.80254 7.5C5.80917 7.5 5.81581 7.5 5.82245 7.5C5.82909 7.5 5.83574 7.5 5.8424 7.5C5.84905 7.5 5.85571 7.5 5.86238 7.5C5.86905 7.5 5.87572 7.5 5.8824 7.5C5.88908 7.5 5.89576 7.5 5.90245 7.5C5.90914 7.5 5.91583 7.5 5.92254 7.5C5.92924 7.5 5.93594 7.5 5.94266 7.5C5.94937 7.5 5.95609 7.5 5.96281 7.5C5.96953 7.5 5.97626 7.5 5.983 7.5C5.98973 7.5 5.99647 7.5 6.00322 7.5C6.00997 7.5 6.01672 7.5 6.02348 7.5C6.03023 7.5 6.037 7.5 6.04376 7.5C6.05053 7.5 6.05731 7.5 6.06409 7.5C6.07086 7.5 6.07765 7.5 6.08444 7.5C6.09123 7.5 6.09802 7.5 6.10483 7.5C6.11163 7.5 6.11843 7.5 6.12524 7.5C6.13206 7.5 6.13887 7.5 6.14569 7.5C6.15252 7.5 6.15934 7.5 6.16618 7.5C6.17301 7.5 6.17985 7.5 6.18669 7.5C6.19353 7.5 6.20038 7.5 6.20723 7.5C6.21409 7.5 6.22095 7.5 6.22781 7.5C6.23467 7.5 6.24154 7.5 6.24842 7.5C6.25529 7.5 6.26217 7.5 6.26906 7.5C6.27594 7.5 6.28283 7.5 6.28972 7.5C6.29662 7.5 6.30352 7.5 6.31042 7.5C6.31733 7.5 6.32423 7.5 6.33115 7.5C6.33806 7.5 6.34498 7.5 6.35191 7.5C6.35883 7.5 6.36576 7.5 6.37269 7.5C6.37963 7.5 6.38657 7.5 6.39351 7.5C6.40045 7.5 6.4074 7.5 6.41436 7.5C6.42131 7.5 6.42827 7.5 6.43523 7.5C6.44219 7.5 6.44916 7.5 6.45613 7.5C6.46311 7.5 6.47008 7.5 6.47707 7.5C6.48405 7.5 6.49103 7.5 6.49802 7.5C6.50502 7.5 6.51201 7.5 6.51901 7.5C6.52601 7.5 6.53302 7.5 6.54003 7.5C6.54704 7.5 6.55405 7.5 6.56107 7.5C6.56809 7.5 6.57511 7.5 6.58214 7.5C6.58917 7.5 6.5962 7.5 6.60324 7.5C6.61027 7.5 6.61731 7.5 6.62436 7.5C6.63141 7.5 6.63846 7.5 6.64551 7.5C6.65256 7.5 6.65962 7.5 6.66669 7.5C6.67375 7.5 6.68082 7.5 6.68789 7.5C6.69496 7.5 6.70204 7.5 6.70912 7.5C6.7162 7.5 6.72328 7.5 6.73037 7.5C6.73746 7.5 6.74455 7.5 6.75165 7.5C6.75875 7.5 6.76585 7.5 6.77296 7.5C6.78006 7.5 6.78717 7.5 6.79429 7.5C6.8014 7.5 6.80852 7.5 6.81564 7.5C6.82276 7.5 6.82989 7.5 6.83702 7.5C6.84415 7.5 6.85128 7.5 6.85842 7.5C6.86556 7.5 6.8727 7.5 6.87985 7.5C6.887 7.5 6.89415 7.5 6.9013 7.5C6.90846 7.5 6.91561 7.5 6.92278 7.5C6.92994 7.5 6.93711 7.5 6.94428 7.5C6.95145 7.5 6.95862 7.5 6.9658 7.5C6.97297 7.5 6.98016 7.5 6.98734 7.5C6.99453 7.5 7.00172 7.5 7.00891 7.5C7.0161 7.5 7.0233 7.5 7.0305 7.5C7.0377 7.5 7.0449 7.5 7.05211 7.5C7.05932 7.5 7.06653 7.5 7.07374 7.5C7.08096 7.5 7.08818 7.5 7.0954 7.5C7.10262 7.5 7.10985 7.5 7.11708 7.5C7.12431 7.5 7.13154 7.5 7.13878 7.5C7.14601 7.5 7.15325 7.5 7.1605 7.5C7.16774 7.5 7.17499 7.5 7.18224 7.5C7.18949 7.5 7.19674 7.5 7.204 7.5C7.21126 7.5 7.21852 7.5 7.22578 7.5C7.23305 7.5 7.24031 7.5 7.24759 7.5C7.25486 7.5 7.26213 7.5 7.26941 7.5C7.27669 7.5 7.28397 7.5 7.29125 7.5C7.29853 7.5 7.30582 7.5 7.31311 7.5C7.3204 7.5 7.3277 7.5 7.33499 7.5C7.34229 7.5 7.34959 7.5 7.35689 7.5C7.3642 7.5 7.3715 7.5 7.37881 7.5C7.38612 7.5 7.39344 7.5 7.40075 7.5C7.40807 7.5 7.41539 7.5 7.42271 7.5C7.43003 7.5 7.43735 7.5 7.44468 7.5C7.45201 7.5 7.45934 7.5 7.46668 7.5C7.47401 7.5 7.48135 7.5 7.48869 7.5C7.49603 7.5 7.50337 7.5 7.51071 7.5C7.51806 7.5 7.52541 7.5 7.53276 7.5C7.54011 7.5 7.54746 7.5 7.55482 7.5C7.56218 7.5 7.56954 7.5 7.5769 7.5C7.58426 7.5 7.59163 7.5 7.599 7.5C7.60637 7.5 7.61374 7.5 7.62111 7.5C7.62848 7.5 7.63586 7.5 7.64324 7.5C7.65062 7.5 7.658 7.5 7.66538 7.5C7.67277 7.5 7.68015 7.5 7.68754 7.5C7.69493 7.5 7.70232 7.5 7.70972 7.5C7.71711 7.5 7.72451 7.5 7.73191 7.5C7.73931 7.5 7.74671 7.5 7.75412 7.5C7.76152 7.5 7.76893 7.5 7.77634 7.5C7.78375 7.5 7.79116 7.5 7.79857 7.5C7.80599 7.5 7.81341 7.5 7.82082 7.5C7.82824 7.5 7.83566 7.5 7.84309 7.5C7.85051 7.5 7.85794 7.5 7.86537 7.5C7.8728 7.5 7.88023 7.5 7.88766 7.5C7.89509 7.5 7.90253 7.5 7.90996 7.5C7.9174 7.5 7.92484 7.5 7.93228 7.5C7.93972 7.5 7.94717 7.5 7.95461 7.5C7.96206 7.5 7.96951 7.5 7.97696 7.5C7.98441 7.5 7.99186 7.5 7.99932 7.5C8.00677 7.5 8.01423 7.5 8.02169 7.5C8.02914 7.5 8.03661 7.5 8.04407 7.5C8.05153 7.5 8.059 7.5 8.06646 7.5C8.07393 7.5 8.0814 7.5 8.08887 7.5C8.09634 7.5 8.10381 7.5 8.11128 7.5C8.11876 7.5 8.12623 7.5 8.13371 7.5C8.14119 7.5 8.14867 7.5 8.15615 7.5C8.16363 7.5 8.17112 7.5 8.1786 7.5C8.18609 7.5 8.19357 7.5 8.20106 7.5C8.20855 7.5 8.21604 7.5 8.22353 7.5C8.23102 7.5 8.23852 7.5 8.24601 7.5C8.25351 7.5 8.26101 7.5 8.2685 7.5C8.276 7.5 8.2835 7.5 8.29101 7.5C8.29851 7.5 8.30601 7.5 8.31352 7.5C8.32102 7.5 8.32853 7.5 8.33603 7.5C8.34354 7.5 8.35105 7.5 8.35856 7.5C8.36607 7.5 8.37359 7.5 8.3811 7.5C8.38861 7.5 8.39613 7.5 8.40364 7.5C8.41116 7.5 8.41868 7.5 8.4262 7.5C8.43372 7.5 8.44124 7.5 8.44876 7.5C8.45628 7.5 8.46381 7.5 8.47133 7.5C8.47885 7.5 8.48638 7.5 8.49391 7.5C8.50143 7.5 8.50896 7.5 8.51649 7.5C8.52402 7.5 8.53155 7.5 8.53908 7.5C8.54662 7.5 8.55415 7.5 8.56168 7.5C8.56922 7.5 8.57675 7.5 8.58429 7.5C8.59183 7.5 8.59936 7.5 8.6069 7.5C8.61444 7.5 8.62198 7.5 8.62952 7.5C8.63706 7.5 8.6446 7.5 8.65214 7.5C8.65969 7.5 8.66723 7.5 8.67478 7.5C8.68232 7.5 8.68986 7.5 8.69741 7.5C8.70496 7.5 8.7125 7.5 8.72005 7.5C8.7276 7.5 8.73515 7.5 8.7427 7.5C8.75025 7.5 8.7578 7.5 8.76535 7.5C8.7729 7.5 8.78045 7.5 8.78801 7.5C8.79556 7.5 8.80311 7.5 8.81067 7.5C8.81822 7.5 8.82578 7.5 8.83333 7.5C8.84089 7.5 8.84844 7.5 8.856 7.5C8.86356 7.5 8.87112 7.5 8.87867 7.5C8.88623 7.5 8.89379 7.5 8.90135 7.5C8.90891 7.5 8.91647 7.5 8.92403 7.5C8.93159 7.5 8.93915 7.5 8.94671 7.5C8.95428 7.5 8.96184 7.5 8.9694 7.5C8.97696 7.5 8.98452 7.5 8.99209 7.5C8.99965 7.5 9.00721 7.5 9.01478 7.5C9.02234 7.5 9.02991 7.5 9.03747 7.5C9.04504 7.5 9.0526 7.5 9.06017 7.5C9.06773 7.5 9.0753 7.5 9.08286 7.5C9.09043 7.5 9.098 7.5 9.10556 7.5C9.11313 7.5 9.1207 7.5 9.12826 7.5C9.13583 7.5 9.1434 7.5 9.15096 7.5C9.15853 7.5 9.1661 7.5 9.17367 7.5C9.18123 7.5 9.1888 7.5 9.19637 7.5C9.20394 7.5 9.2115 7.5 9.21907 7.5C9.22664 7.5 9.23421 7.5 9.24177 7.5C9.24934 7.5 9.25691 7.5 9.26448 7.5C9.27205 7.5 9.27961 7.5 9.28718 7.5C9.29475 7.5 9.30231 7.5 9.30988 7.5C9.31745 7.5 9.32502 7.5 9.33258 7.5C9.34015 7.5 9.34772 7.5 9.35528 7.5C9.36285 7.5 9.37042 7.5 9.37799 7.5C9.38555 7.5 9.39312 7.5 9.40068 7.5C9.40825 7.5 9.41581 7.5 9.42338 7.5C9.43095 7.5 9.43851 7.5 9.44607 7.5C9.45364 7.5 9.4612 7.5 9.46877 7.5C9.47633 7.5 9.4839 7.5 9.49146 7.5C9.49902 7.5 9.50658 7.5 9.51415 7.5C9.52171 7.5 9.52927 7.5 9.53683 7.5C9.54439 7.5 9.55195 7.5 9.55951 7.5C9.56707 7.5 9.57463 7.5 9.58219 7.5C9.58975 7.5 9.59731 7.5 9.60487 7.5C9.61243 7.5 9.61998 7.5 9.62754 7.5C9.6351 7.5 9.64265 7.5 9.65021 7.5C9.65776 7.5 9.66532 7.5 9.67287 7.5C9.68043 7.5 9.68798 7.5 9.69553 7.5C9.70309 7.5 9.71064 7.5 9.71819 7.5C9.72574 7.5 9.73329 7.5 9.74084 7.5C9.74839 7.5 9.75594 7.5 9.76348 7.5C9.77103 7.5 9.77858 7.5 9.78613 7.5C9.79367 7.5 9.80122 7.5 9.80876 7.5C9.81631 7.5 9.82385 7.5 9.83139 7.5C9.83893 7.5 9.84647 7.5 9.85401 7.5C9.86155 7.5 9.86909 7.5 9.87663 7.5C9.88417 7.5 9.89171 7.5 9.89924 7.5C9.90678 7.5 9.91431 7.5 9.92185 7.5C9.92938 7.5 9.93691 7.5 9.94444 7.5C9.95198 7.5 9.95951 7.5 9.96704 7.5C9.97456 7.5 9.98209 7.5 9.98962 7.5C9.99715 7.5 10.0047 7.5 10.0122 7.5C10.0197 7.5 10.0272 7.5 10.0348 7.5C10.0423 7.5 10.0498 7.5 10.0573 7.5C10.0648 7.5 10.0724 7.5 10.0799 7.5C10.0874 7.5 10.0949 7.5 10.1024 7.5C10.1099 7.5 10.1174 7.5 10.125 7.5C10.1325 7.5 10.14 7.5 10.1475 7.5C10.155 7.5 10.1625 7.5 10.17 7.5C10.1775 7.5 10.185 7.5 10.1925 7.5C10.2 7.5 10.2075 7.5 10.215 7.5C10.2225 7.5 10.23 7.5 10.2375 7.5C10.245 7.5 10.2525 7.5 10.26 7.5C10.2675 7.5 10.275 7.5 10.2824 7.5C10.2899 7.5 10.2974 7.5 10.3049 7.5C10.3124 7.5 10.3199 7.5 10.3274 7.5C10.3348 7.5 10.3423 7.5 10.3498 7.5C10.3573 7.5 10.3647 7.5 10.3722 7.5C10.3797 7.5 10.3872 7.5 10.3946 7.5C10.4021 7.5 10.4096 7.5 10.417 7.5C10.4245 7.5 10.432 7.5 10.4394 7.5C10.4469 7.5 10.4543 7.5 10.4618 7.5C10.4693 7.5 10.4767 7.5 10.4842 7.5C10.4916 7.5 10.4991 7.5 10.5065 7.5C10.514 7.5 10.5214 7.5 10.5289 7.5C10.5363 7.5 10.5438 7.5 10.5512 7.5C10.5586 7.5 10.5661 7.5 10.5735 7.5C10.581 7.5 10.5884 7.5 10.5958 7.5C10.6033 7.5 10.6107 7.5 10.6181 7.5C10.6255 7.5 10.633 7.5 10.6404 7.5C10.6478 7.5 10.6552 7.5 10.6626 7.5C10.6701 7.5 10.6775 7.5 10.6849 7.5C10.6923 7.5 10.6997 7.5 10.7071 7.5C10.7145 7.5 10.7219 7.5 10.7293 7.5C10.7367 7.5 10.7442 7.5 10.7515 7.5C10.7589 7.5 10.7663 7.5 10.7737 7.5C10.7811 7.5 10.7885 7.5 10.7959 7.5C10.8033 7.5 10.8107 7.5 10.8181 7.5C10.8255 7.5 10.8328 7.5 10.8402 7.5C10.8476 7.5 10.855 7.5 10.8623 7.5C10.8697 7.5 10.8771 7.5 10.8844 7.5C10.8918 7.5 10.8992 7.5 10.9065 7.5C10.9139 7.5 10.9213 7.5 10.9286 7.5C10.936 7.5 10.9433 7.5 10.9507 7.5C10.958 7.5 10.9654 7.5 10.9727 7.5C10.9801 7.5 10.9874 7.5 10.9947 7.5C11.0021 7.5 11.0094 7.5 11.0168 7.5C11.0241 7.5 11.0314 7.5 11.0387 7.5C11.0461 7.5 11.0534 7.5 11.0607 7.5C11.068 7.5 11.0754 7.5 11.0827 7.5C11.09 7.5 11.0973 7.5 11.1046 7.5C11.1119 7.5 11.1192 7.5 11.1265 7.5C11.1338 7.5 11.1411 7.5 11.1484 7.5C11.1557 7.5 11.163 7.5 11.1703 7.5C11.1776 7.5 11.1849 7.5 11.1922 7.5C11.1994 7.5 11.2067 7.5 11.214 7.5C11.2213 7.5 11.2285 7.5 11.2358 7.5C11.2431 7.5 11.2503 7.5 11.2576 7.5C11.2649 7.5 11.2721 7.5 11.2794 7.5C11.2866 7.5 11.2939 7.5 11.3011 7.5C11.3084 7.5 11.3156 7.5 11.3229 7.5C11.3301 7.5 11.3374 7.5 11.3446 7.5C11.3518 7.5 11.3591 7.5 11.3663 7.5C11.3735 7.5 11.3807 7.5 11.388 7.5C11.3952 7.5 11.4024 7.5 11.4096 7.5C11.4168 7.5 11.424 7.5 11.4313 7.5C11.4385 7.5 11.4457 7.5 11.4529 7.5C11.4601 7.5 11.4673 7.5 11.4744 7.5C11.4816 7.5 11.4888 7.5 11.496 7.5C11.5032 7.5 11.5104 7.5 11.5175 7.5C11.5247 7.5 11.5319 7.5 11.5391 7.5C11.5462 7.5 11.5534 7.5 11.5606 7.5C11.5677 7.5 11.5749 7.5 11.582 7.5C11.5892 7.5 11.5963 7.5 11.6035 7.5C11.6106 7.5 11.6178 7.5 11.6249 7.5C11.632 7.5 11.6392 7.5 11.6463 7.5C11.6534 7.5 11.6606 7.5 11.6677 7.5C11.6748 7.5 11.6819 7.5 11.689 7.5C11.6961 7.5 11.7032 7.5 11.7104 7.5C11.7175 7.5 11.7246 7.5 11.7317 7.5C11.7387 7.5 11.7458 7.5 11.7529 7.5C11.76 7.5 11.7671 7.5 11.7742 7.5C11.7813 7.5 11.7883 7.5 11.7954 7.5C11.8025 7.5 11.8095 7.5 11.8166 7.5C11.8237 7.5 11.8307 7.5 11.8378 7.5C11.8448 7.5 11.8519 7.5 11.8589 7.5C11.866 7.5 11.873 7.5 11.88 7.5C11.8871 7.5 11.8941 7.5 11.9011 7.5C11.9082 7.5 11.9152 7.5 11.9222 7.5C11.9292 7.5 11.9362 7.5 11.9432 7.5C11.9502 7.5 11.9572 7.5 11.9642 7.5C11.9712 7.5 11.9782 7.5 11.9852 7.5C11.9922 7.5 11.9992 7.5 12.0062 7.5C12.0132 7.5 12.0201 7.5 12.0271 7.5C12.0341 7.5 12.041 7.5 12.048 7.5C12.055 7.5 12.0619 7.5 12.0689 7.5C12.0758 7.5 12.0828 7.5 12.0897 7.5C12.0967 7.5 12.1036 7.5 12.1105 7.5C12.1175 7.5 12.1244 7.5 12.1313 7.5C12.1382 7.5 12.1451 7.5 12.1521 7.5C12.159 7.5 12.1659 7.5 12.1728 7.5C12.1797 7.5 12.1866 7.5 12.1935 7.5C12.2004 7.5 12.2073 7.5 12.2141 7.5C12.221 7.5 12.2279 7.5 12.2348 7.5C12.2416 7.5 12.2485 7.5 12.2554 7.5C12.2622 7.5 12.2691 7.5 12.2759 7.5C12.2828 7.5 12.2896 7.5 12.2965 7.5C12.3033 7.5 12.3102 7.5 12.317 7.5C12.3238 7.5 12.3306 7.5 12.3375 7.5C12.3443 7.5 12.3511 7.5 12.3579 7.5C12.3647 7.5 12.3715 7.5 12.3783 7.5C12.3851 7.5 12.3919 7.5 12.3987 7.5C12.4055 7.5 12.4123 7.5 12.4191 7.5C12.4258 7.5 12.4326 7.5 12.4394 7.5C12.4461 7.5 12.4529 7.5 12.4597 7.5C12.4664 7.5 12.4732 7.5 12.4799 7.5C12.4866 7.5 12.4934 7.5 12.5001 7.5C12.5068 7.5 12.5136 7.5 12.5203 7.5C12.527 7.5 12.5337 7.5 12.5404 7.5C12.5472 7.5 12.5539 7.5 12.5606 7.5C12.5673 7.5 12.574 7.5 12.5806 7.5C12.5873 7.5 12.594 7.5 12.6007 7.5C12.6074 7.5 12.614 7.5 12.6207 7.5C12.6274 7.5 12.634 7.5 12.6407 7.5C12.6473 7.5 12.654 7.5 12.6606 7.5C12.6673 7.5 12.6739 7.5 12.6805 7.5C12.6872 7.5 12.6938 7.5 12.7004 7.5C12.707 7.5 12.7136 7.5 12.7202 7.5C12.7268 7.5 12.7334 7.5 12.74 7.5C12.7466 7.5 12.7532 7.5 12.7598 7.5C12.7664 7.5 12.7729 7.5 12.7795 7.5C12.7861 7.5 12.7926 7.5 12.7992 7.5C12.8058 7.5 12.8123 7.5 12.8189 7.5C12.8254 7.5 12.8319 7.5 12.8385 7.5C12.845 7.5 12.8515 7.5 12.858 7.5C12.8646 7.5 12.8711 7.5 12.8776 7.5C12.8841 7.5 12.8906 7.5 12.8971 7.5C12.9036 7.5 12.9101 7.5 12.9165 7.5C12.923 7.5 12.9295 7.5 12.936 7.5C12.9424 7.5 12.9489 7.5 12.9554 7.5C12.9618 7.5 12.9683 7.5 12.9747 7.5C12.9811 7.5 12.9876 7.5 12.994 7.5C13.0004 7.5 13.0069 7.5 13.0133 7.5C13.0197 7.5 13.0261 7.5 13.0325 7.5C13.0389 7.5 13.0453 7.5 13.0517 7.5C13.0581 7.5 13.0645 7.5 13.0709 7.5C13.0772 7.5 13.0836 7.5 13.09 7.5C13.0963 7.5 13.1027 7.5 13.109 7.5C13.1154 7.5 13.1217 7.5 13.1281 7.5C13.1344 7.5 13.1407 7.5 13.1471 7.5C13.1534 7.5 13.1597 7.5 13.166 7.5C13.1723 7.5 13.1786 7.5 13.1849 7.5C13.1912 7.5 13.1975 7.5 13.2038 7.5C13.2101 7.5 13.2163 7.5 13.2226 7.5C13.2289 7.5 13.2351 7.5 13.2414 7.5C13.2476 7.5 13.2539 7.5 13.2601 7.5C13.2664 7.5 13.2726 7.5 13.2788 7.5C13.285 7.5 13.2913 7.5 13.2975 7.5C13.3037 7.5 13.3099 7.5 13.3161 7.5C13.3223 7.5 13.3285 7.5 13.3346 7.5C13.3408 7.5 13.347 7.5 13.3532 7.5C13.3593 7.5 13.3655 7.5 13.3717 7.5C13.3778 7.5 13.384 7.5 13.3901 7.5C13.3962 7.5 13.4024 7.5 13.4085 7.5C13.4146 7.5 13.4207 7.5 13.4268 7.5C13.4329 7.5 13.439 7.5 13.4451 7.5C13.4512 7.5 13.4573 7.5 13.4634 7.5C13.4695 7.5 13.4756 7.5 13.4816 7.5C13.4877 7.5 13.4937 7.5 13.4998 7.5C13.5058 7.5 13.5119 7.5 13.5179 7.5C13.5239 7.5 13.53 7.5 13.536 7.5C13.542 7.5 13.548 7.5 13.554 7.5C13.56 7.5 13.566 7.5 13.572 7.5C13.578 7.5 13.584 7.5 13.59 7.5C13.5959 7.5 13.6019 7.5 13.6079 7.5C13.6138 7.5 13.6198 7.5 13.6257 7.5C13.6316 7.5 13.6376 7.5 13.6435 7.5C13.6494 7.5 13.6553 7.5 13.6613 7.5C13.6672 7.5 13.6731 7.5 13.679 7.5C13.6849 7.5 13.6907 7.5 13.6966 7.5C13.7025 7.5 13.7084 7.5 13.7142 7.5C13.7201 7.5 13.726 7.5 13.7318 7.5C13.7376 7.5 13.7435 7.5 13.7493 7.5C13.7551 7.5 13.761 7.5 13.7668 7.5C13.7726 7.5 13.7784 7.5 13.7842 7.5C13.79 7.5 13.7958 7.5 13.8016 7.5C13.8074 7.5 13.8131 7.5 13.8189 7.5C13.8247 7.5 13.8304 7.5 13.8362 7.5C13.8419 7.5 13.8477 7.5 13.8534 7.5C13.8591 7.5 13.8648 7.5 13.8706 7.5C13.8763 7.5 13.882 7.5 13.8877 7.5C13.8934 7.5 13.8991 7.5 13.9047 7.5C13.9104 7.5 13.9161 7.5 13.9218 7.5C13.9274 7.5 13.9331 7.5 13.9387 7.5C13.9444 7.5 13.95 7.5 13.9557 7.5C13.9613 7.5 13.9669 7.5 13.9725 7.5C13.9781 7.5 13.9837 7.5 13.9893 7.5C13.9949 7.5 14.0005 7.5 14.0061 7.5C14.0117 7.5 14.0173 7.5 14.0228 7.5C14.0284 7.5 14.0339 7.5 14.0395 7.5C14.045 7.5 14.0506 7.5 14.0561 7.5C14.0616 7.5 14.0671 7.5 14.0727 7.5C14.0782 7.5 14.0837 7.5 14.0892 7.5C14.0946 7.5 14.1001 7.5 14.1056 7.5C14.1111 7.5 14.1165 7.5 14.122 7.5C14.1275 7.5 14.1329 7.5 14.1383 7.5C14.1438 7.5 14.1492 7.5 14.1546 7.5C14.1601 7.5 14.1655 7.5 14.1709 7.5C14.1763 7.5 14.1817 7.5 14.1871 7.5C14.1924 7.5 14.1978 7.5 14.2032 7.5C14.2086 7.5 14.2139 7.5 14.2193 7.5C14.2246 7.5 14.2299 7.5 14.2353 7.5C14.2406 7.5 14.2459 7.5 14.2512 7.5C14.2566 7.5 14.2619 7.5 14.2672 7.5C14.2724 7.5 14.2777 7.5 14.283 7.5C14.2883 7.5 14.2935 7.5 14.2988 7.5C14.3041 7.5 14.3093 7.5 14.3145 7.5C14.3198 7.5 14.325 7.5 14.3302 7.5C14.3354 7.5 14.3407 7.5 14.3459 7.5C14.3511 7.5 14.3562 7.5 14.3614 7.5C14.3666 7.5 14.3718 7.5 14.3769 7.5C14.3821 7.5 14.3873 7.5 14.3924 7.5C14.3975 7.5 14.4027 7.5 14.4078 7.5C14.4129 7.5 14.418 7.5 14.4232 7.5C14.4283 7.5 14.4334 7.5 14.4384 7.5C14.4435 7.5 14.4486 7.5 14.4537 7.5C14.4587 7.5 14.4638 7.5 14.4688 7.5C14.4739 7.5 14.4789 7.5 14.4839 7.5C14.489 7.5 14.494 7.5 14.499 7.5C14.504 7.5 14.509 7.5 14.514 7.5C14.519 7.5 14.524 7.5 14.5289 7.5C14.5339 7.5 14.5389 7.5 14.5438 7.5C14.5488 7.5 14.5537 7.5 14.5586 7.5C14.5636 7.5 14.5685 7.5 14.5734 7.5C14.5783 7.5 14.5832 7.5 14.5881 7.5C14.593 7.5 14.5978 7.5 14.6027 7.5C14.6076 7.5 14.6124 7.5 14.6173 7.5C14.6221 7.5 14.627 7.5 14.6318 7.5C14.6366 7.5 14.6415 7.5 14.6463 7.5C14.6511 7.5 14.6559 7.5 14.6607 7.5C14.6654 7.5 14.6702 7.5 14.675 7.5C14.6798 7.5 14.6845 7.5 14.6893 7.5C14.694 7.5 14.6987 7.5 14.7035 7.5C14.7082 7.5 14.7129 7.5 14.7176 7.5C14.7223 7.5 14.727 7.5 14.7317 7.5C14.7364 7.5 14.7411 7.5 14.7457 7.5C14.7504 7.5 14.755 7.5 14.7597 7.5C14.7643 7.5 14.769 7.5 14.7736 7.5C14.7782 7.5 14.7828 7.5 14.7874 7.5C14.792 7.5 14.7966 7.5 14.8012 7.5C14.8058 7.5 14.8103 7.5 14.8149 7.5C14.8195 7.5 14.824 7.5 14.8285 7.5C14.8331 7.5 14.8376 7.5 14.8421 7.5C14.8466 7.5 14.8511 7.5 14.8556 7.5C14.8601 7.5 14.8646 7.5 14.8691 7.5C14.8736 7.5 14.878 7.5 14.8825 7.5C14.8869 7.5 14.8914 7.5 14.8958 7.5C14.9002 7.5 14.9046 7.5 14.9091 7.5C14.9135 7.5 14.9179 7.5 14.9222 7.5C14.9266 7.5 14.931 7.5 14.9354 7.5C14.9397 7.5 14.9441 7.5 14.9484 7.5C14.9528 7.5 14.9571 7.5 14.9614 7.5C14.9657 7.5 14.97 7.5 14.9743 7.5C14.9786 7.5 14.9829 7.5 14.9872 7.5C14.9915 7.5 14.9957 7.5 15 7.5V6.5C14.9957 6.5 14.9915 6.5 14.9872 6.5C14.9829 6.5 14.9786 6.5 14.9743 6.5C14.97 6.5 14.9657 6.5 14.9614 6.5C14.9571 6.5 14.9528 6.5 14.9484 6.5C14.9441 6.5 14.9397 6.5 14.9354 6.5C14.931 6.5 14.9266 6.5 14.9222 6.5C14.9179 6.5 14.9135 6.5 14.9091 6.5C14.9046 6.5 14.9002 6.5 14.8958 6.5C14.8914 6.5 14.8869 6.5 14.8825 6.5C14.878 6.5 14.8736 6.5 14.8691 6.5C14.8646 6.5 14.8601 6.5 14.8556 6.5C14.8511 6.5 14.8466 6.5 14.8421 6.5C14.8376 6.5 14.8331 6.5 14.8285 6.5C14.824 6.5 14.8195 6.5 14.8149 6.5C14.8103 6.5 14.8058 6.5 14.8012 6.5C14.7966 6.5 14.792 6.5 14.7874 6.5C14.7828 6.5 14.7782 6.5 14.7736 6.5C14.769 6.5 14.7643 6.5 14.7597 6.5C14.755 6.5 14.7504 6.5 14.7457 6.5C14.7411 6.5 14.7364 6.5 14.7317 6.5C14.727 6.5 14.7223 6.5 14.7176 6.5C14.7129 6.5 14.7082 6.5 14.7035 6.5C14.6987 6.5 14.694 6.5 14.6893 6.5C14.6845 6.5 14.6798 6.5 14.675 6.5C14.6702 6.5 14.6654 6.5 14.6607 6.5C14.6559 6.5 14.6511 6.5 14.6463 6.5C14.6415 6.5 14.6366 6.5 14.6318 6.5C14.627 6.5 14.6221 6.5 14.6173 6.5C14.6124 6.5 14.6076 6.5 14.6027 6.5C14.5978 6.5 14.593 6.5 14.5881 6.5C14.5832 6.5 14.5783 6.5 14.5734 6.5C14.5685 6.5 14.5636 6.5 14.5586 6.5C14.5537 6.5 14.5488 6.5 14.5438 6.5C14.5389 6.5 14.5339 6.5 14.5289 6.5C14.524 6.5 14.519 6.5 14.514 6.5C14.509 6.5 14.504 6.5 14.499 6.5C14.494 6.5 14.489 6.5 14.4839 6.5C14.4789 6.5 14.4739 6.5 14.4688 6.5C14.4638 6.5 14.4587 6.5 14.4537 6.5C14.4486 6.5 14.4435 6.5 14.4384 6.5C14.4334 6.5 14.4283 6.5 14.4232 6.5C14.418 6.5 14.4129 6.5 14.4078 6.5C14.4027 6.5 14.3975 6.5 14.3924 6.5C14.3873 6.5 14.3821 6.5 14.3769 6.5C14.3718 6.5 14.3666 6.5 14.3614 6.5C14.3562 6.5 14.3511 6.5 14.3459 6.5C14.3407 6.5 14.3354 6.5 14.3302 6.5C14.325 6.5 14.3198 6.5 14.3145 6.5C14.3093 6.5 14.3041 6.5 14.2988 6.5C14.2935 6.5 14.2883 6.5 14.283 6.5C14.2777 6.5 14.2724 6.5 14.2672 6.5C14.2619 6.5 14.2566 6.5 14.2512 6.5C14.2459 6.5 14.2406 6.5 14.2353 6.5C14.2299 6.5 14.2246 6.5 14.2193 6.5C14.2139 6.5 14.2086 6.5 14.2032 6.5C14.1978 6.5 14.1924 6.5 14.1871 6.5C14.1817 6.5 14.1763 6.5 14.1709 6.5C14.1655 6.5 14.1601 6.5 14.1546 6.5C14.1492 6.5 14.1438 6.5 14.1383 6.5C14.1329 6.5 14.1275 6.5 14.122 6.5C14.1165 6.5 14.1111 6.5 14.1056 6.5C14.1001 6.5 14.0946 6.5 14.0892 6.5C14.0837 6.5 14.0782 6.5 14.0727 6.5C14.0671 6.5 14.0616 6.5 14.0561 6.5C14.0506 6.5 14.045 6.5 14.0395 6.5C14.0339 6.5 14.0284 6.5 14.0228 6.5C14.0173 6.5 14.0117 6.5 14.0061 6.5C14.0005 6.5 13.9949 6.5 13.9893 6.5C13.9837 6.5 13.9781 6.5 13.9725 6.5C13.9669 6.5 13.9613 6.5 13.9557 6.5C13.95 6.5 13.9444 6.5 13.9387 6.5C13.9331 6.5 13.9274 6.5 13.9218 6.5C13.9161 6.5 13.9104 6.5 13.9047 6.5C13.8991 6.5 13.8934 6.5 13.8877 6.5C13.882 6.5 13.8763 6.5 13.8706 6.5C13.8648 6.5 13.8591 6.5 13.8534 6.5C13.8477 6.5 13.8419 6.5 13.8362 6.5C13.8304 6.5 13.8247 6.5 13.8189 6.5C13.8131 6.5 13.8074 6.5 13.8016 6.5C13.7958 6.5 13.79 6.5 13.7842 6.5C13.7784 6.5 13.7726 6.5 13.7668 6.5C13.761 6.5 13.7551 6.5 13.7493 6.5C13.7435 6.5 13.7376 6.5 13.7318 6.5C13.726 6.5 13.7201 6.5 13.7142 6.5C13.7084 6.5 13.7025 6.5 13.6966 6.5C13.6907 6.5 13.6849 6.5 13.679 6.5C13.6731 6.5 13.6672 6.5 13.6613 6.5C13.6553 6.5 13.6494 6.5 13.6435 6.5C13.6376 6.5 13.6316 6.5 13.6257 6.5C13.6198 6.5 13.6138 6.5 13.6079 6.5C13.6019 6.5 13.5959 6.5 13.59 6.5C13.584 6.5 13.578 6.5 13.572 6.5C13.566 6.5 13.56 6.5 13.554 6.5C13.548 6.5 13.542 6.5 13.536 6.5C13.53 6.5 13.5239 6.5 13.5179 6.5C13.5119 6.5 13.5058 6.5 13.4998 6.5C13.4937 6.5 13.4877 6.5 13.4816 6.5C13.4756 6.5 13.4695 6.5 13.4634 6.5C13.4573 6.5 13.4512 6.5 13.4451 6.5C13.439 6.5 13.4329 6.5 13.4268 6.5C13.4207 6.5 13.4146 6.5 13.4085 6.5C13.4024 6.5 13.3962 6.5 13.3901 6.5C13.384 6.5 13.3778 6.5 13.3717 6.5C13.3655 6.5 13.3593 6.5 13.3532 6.5C13.347 6.5 13.3408 6.5 13.3346 6.5C13.3285 6.5 13.3223 6.5 13.3161 6.5C13.3099 6.5 13.3037 6.5 13.2975 6.5C13.2913 6.5 13.285 6.5 13.2788 6.5C13.2726 6.5 13.2664 6.5 13.2601 6.5C13.2539 6.5 13.2476 6.5 13.2414 6.5C13.2351 6.5 13.2289 6.5 13.2226 6.5C13.2163 6.5 13.2101 6.5 13.2038 6.5C13.1975 6.5 13.1912 6.5 13.1849 6.5C13.1786 6.5 13.1723 6.5 13.166 6.5C13.1597 6.5 13.1534 6.5 13.1471 6.5C13.1407 6.5 13.1344 6.5 13.1281 6.5C13.1217 6.5 13.1154 6.5 13.109 6.5C13.1027 6.5 13.0963 6.5 13.09 6.5C13.0836 6.5 13.0772 6.5 13.0709 6.5C13.0645 6.5 13.0581 6.5 13.0517 6.5C13.0453 6.5 13.0389 6.5 13.0325 6.5C13.0261 6.5 13.0197 6.5 13.0133 6.5C13.0069 6.5 13.0004 6.5 12.994 6.5C12.9876 6.5 12.9811 6.5 12.9747 6.5C12.9683 6.5 12.9618 6.5 12.9554 6.5C12.9489 6.5 12.9424 6.5 12.936 6.5C12.9295 6.5 12.923 6.5 12.9165 6.5C12.9101 6.5 12.9036 6.5 12.8971 6.5C12.8906 6.5 12.8841 6.5 12.8776 6.5C12.8711 6.5 12.8646 6.5 12.858 6.5C12.8515 6.5 12.845 6.5 12.8385 6.5C12.8319 6.5 12.8254 6.5 12.8189 6.5C12.8123 6.5 12.8058 6.5 12.7992 6.5C12.7926 6.5 12.7861 6.5 12.7795 6.5C12.7729 6.5 12.7664 6.5 12.7598 6.5C12.7532 6.5 12.7466 6.5 12.74 6.5C12.7334 6.5 12.7268 6.5 12.7202 6.5C12.7136 6.5 12.707 6.5 12.7004 6.5C12.6938 6.5 12.6872 6.5 12.6805 6.5C12.6739 6.5 12.6673 6.5 12.6606 6.5C12.654 6.5 12.6473 6.5 12.6407 6.5C12.634 6.5 12.6274 6.5 12.6207 6.5C12.614 6.5 12.6074 6.5 12.6007 6.5C12.594 6.5 12.5873 6.5 12.5806 6.5C12.574 6.5 12.5673 6.5 12.5606 6.5C12.5539 6.5 12.5472 6.5 12.5404 6.5C12.5337 6.5 12.527 6.5 12.5203 6.5C12.5136 6.5 12.5068 6.5 12.5001 6.5C12.4934 6.5 12.4866 6.5 12.4799 6.5C12.4732 6.5 12.4664 6.5 12.4597 6.5C12.4529 6.5 12.4461 6.5 12.4394 6.5C12.4326 6.5 12.4258 6.5 12.4191 6.5C12.4123 6.5 12.4055 6.5 12.3987 6.5C12.3919 6.5 12.3851 6.5 12.3783 6.5C12.3715 6.5 12.3647 6.5 12.3579 6.5C12.3511 6.5 12.3443 6.5 12.3375 6.5C12.3306 6.5 12.3238 6.5 12.317 6.5C12.3102 6.5 12.3033 6.5 12.2965 6.5C12.2896 6.5 12.2828 6.5 12.2759 6.5C12.2691 6.5 12.2622 6.5 12.2554 6.5C12.2485 6.5 12.2416 6.5 12.2348 6.5C12.2279 6.5 12.221 6.5 12.2141 6.5C12.2073 6.5 12.2004 6.5 12.1935 6.5C12.1866 6.5 12.1797 6.5 12.1728 6.5C12.1659 6.5 12.159 6.5 12.1521 6.5C12.1451 6.5 12.1382 6.5 12.1313 6.5C12.1244 6.5 12.1175 6.5 12.1105 6.5C12.1036 6.5 12.0967 6.5 12.0897 6.5C12.0828 6.5 12.0758 6.5 12.0689 6.5C12.0619 6.5 12.055 6.5 12.048 6.5C12.041 6.5 12.0341 6.5 12.0271 6.5C12.0201 6.5 12.0132 6.5 12.0062 6.5C11.9992 6.5 11.9922 6.5 11.9852 6.5C11.9782 6.5 11.9712 6.5 11.9642 6.5C11.9572 6.5 11.9502 6.5 11.9432 6.5C11.9362 6.5 11.9292 6.5 11.9222 6.5C11.9152 6.5 11.9082 6.5 11.9011 6.5C11.8941 6.5 11.8871 6.5 11.88 6.5C11.873 6.5 11.866 6.5 11.8589 6.5C11.8519 6.5 11.8448 6.5 11.8378 6.5C11.8307 6.5 11.8237 6.5 11.8166 6.5C11.8095 6.5 11.8025 6.5 11.7954 6.5C11.7883 6.5 11.7813 6.5 11.7742 6.5C11.7671 6.5 11.76 6.5 11.7529 6.5C11.7458 6.5 11.7387 6.5 11.7317 6.5C11.7246 6.5 11.7175 6.5 11.7104 6.5C11.7032 6.5 11.6961 6.5 11.689 6.5C11.6819 6.5 11.6748 6.5 11.6677 6.5C11.6606 6.5 11.6534 6.5 11.6463 6.5C11.6392 6.5 11.632 6.5 11.6249 6.5C11.6178 6.5 11.6106 6.5 11.6035 6.5C11.5963 6.5 11.5892 6.5 11.582 6.5C11.5749 6.5 11.5677 6.5 11.5606 6.5C11.5534 6.5 11.5462 6.5 11.5391 6.5C11.5319 6.5 11.5247 6.5 11.5175 6.5C11.5104 6.5 11.5032 6.5 11.496 6.5C11.4888 6.5 11.4816 6.5 11.4744 6.5C11.4673 6.5 11.4601 6.5 11.4529 6.5C11.4457 6.5 11.4385 6.5 11.4313 6.5C11.424 6.5 11.4168 6.5 11.4096 6.5C11.4024 6.5 11.3952 6.5 11.388 6.5C11.3807 6.5 11.3735 6.5 11.3663 6.5C11.3591 6.5 11.3518 6.5 11.3446 6.5C11.3374 6.5 11.3301 6.5 11.3229 6.5C11.3156 6.5 11.3084 6.5 11.3011 6.5C11.2939 6.5 11.2866 6.5 11.2794 6.5C11.2721 6.5 11.2649 6.5 11.2576 6.5C11.2503 6.5 11.2431 6.5 11.2358 6.5C11.2285 6.5 11.2213 6.5 11.214 6.5C11.2067 6.5 11.1994 6.5 11.1922 6.5C11.1849 6.5 11.1776 6.5 11.1703 6.5C11.163 6.5 11.1557 6.5 11.1484 6.5C11.1411 6.5 11.1338 6.5 11.1265 6.5C11.1192 6.5 11.1119 6.5 11.1046 6.5C11.0973 6.5 11.09 6.5 11.0827 6.5C11.0754 6.5 11.068 6.5 11.0607 6.5C11.0534 6.5 11.0461 6.5 11.0387 6.5C11.0314 6.5 11.0241 6.5 11.0168 6.5C11.0094 6.5 11.0021 6.5 10.9947 6.5C10.9874 6.5 10.9801 6.5 10.9727 6.5C10.9654 6.5 10.958 6.5 10.9507 6.5C10.9433 6.5 10.936 6.5 10.9286 6.5C10.9213 6.5 10.9139 6.5 10.9065 6.5C10.8992 6.5 10.8918 6.5 10.8844 6.5C10.8771 6.5 10.8697 6.5 10.8623 6.5C10.855 6.5 10.8476 6.5 10.8402 6.5C10.8328 6.5 10.8255 6.5 10.8181 6.5C10.8107 6.5 10.8033 6.5 10.7959 6.5C10.7885 6.5 10.7811 6.5 10.7737 6.5C10.7663 6.5 10.7589 6.5 10.7515 6.5C10.7442 6.5 10.7367 6.5 10.7293 6.5C10.7219 6.5 10.7145 6.5 10.7071 6.5C10.6997 6.5 10.6923 6.5 10.6849 6.5C10.6775 6.5 10.6701 6.5 10.6626 6.5C10.6552 6.5 10.6478 6.5 10.6404 6.5C10.633 6.5 10.6255 6.5 10.6181 6.5C10.6107 6.5 10.6033 6.5 10.5958 6.5C10.5884 6.5 10.581 6.5 10.5735 6.5C10.5661 6.5 10.5586 6.5 10.5512 6.5C10.5438 6.5 10.5363 6.5 10.5289 6.5C10.5214 6.5 10.514 6.5 10.5065 6.5C10.4991 6.5 10.4916 6.5 10.4842 6.5C10.4767 6.5 10.4693 6.5 10.4618 6.5C10.4543 6.5 10.4469 6.5 10.4394 6.5C10.432 6.5 10.4245 6.5 10.417 6.5C10.4096 6.5 10.4021 6.5 10.3946 6.5C10.3872 6.5 10.3797 6.5 10.3722 6.5C10.3647 6.5 10.3573 6.5 10.3498 6.5C10.3423 6.5 10.3348 6.5 10.3274 6.5C10.3199 6.5 10.3124 6.5 10.3049 6.5C10.2974 6.5 10.2899 6.5 10.2824 6.5C10.275 6.5 10.2675 6.5 10.26 6.5C10.2525 6.5 10.245 6.5 10.2375 6.5C10.23 6.5 10.2225 6.5 10.215 6.5C10.2075 6.5 10.2 6.5 10.1925 6.5C10.185 6.5 10.1775 6.5 10.17 6.5C10.1625 6.5 10.155 6.5 10.1475 6.5C10.14 6.5 10.1325 6.5 10.125 6.5C10.1174 6.5 10.1099 6.5 10.1024 6.5C10.0949 6.5 10.0874 6.5 10.0799 6.5C10.0724 6.5 10.0648 6.5 10.0573 6.5C10.0498 6.5 10.0423 6.5 10.0348 6.5C10.0272 6.5 10.0197 6.5 10.0122 6.5C10.0047 6.5 9.99715 6.5 9.98962 6.5C9.98209 6.5 9.97456 6.5 9.96704 6.5C9.95951 6.5 9.95198 6.5 9.94444 6.5C9.93691 6.5 9.92938 6.5 9.92185 6.5C9.91431 6.5 9.90678 6.5 9.89924 6.5C9.89171 6.5 9.88417 6.5 9.87663 6.5C9.86909 6.5 9.86155 6.5 9.85401 6.5C9.84647 6.5 9.83893 6.5 9.83139 6.5C9.82385 6.5 9.81631 6.5 9.80876 6.5C9.80122 6.5 9.79367 6.5 9.78613 6.5C9.77858 6.5 9.77103 6.5 9.76348 6.5C9.75594 6.5 9.74839 6.5 9.74084 6.5C9.73329 6.5 9.72574 6.5 9.71819 6.5C9.71064 6.5 9.70309 6.5 9.69553 6.5C9.68798 6.5 9.68043 6.5 9.67287 6.5C9.66532 6.5 9.65776 6.5 9.65021 6.5C9.64265 6.5 9.6351 6.5 9.62754 6.5C9.61998 6.5 9.61243 6.5 9.60487 6.5C9.59731 6.5 9.58975 6.5 9.58219 6.5C9.57463 6.5 9.56707 6.5 9.55951 6.5C9.55195 6.5 9.54439 6.5 9.53683 6.5C9.52927 6.5 9.52171 6.5 9.51415 6.5C9.50658 6.5 9.49902 6.5 9.49146 6.5C9.4839 6.5 9.47633 6.5 9.46877 6.5C9.4612 6.5 9.45364 6.5 9.44607 6.5C9.43851 6.5 9.43095 6.5 9.42338 6.5C9.41581 6.5 9.40825 6.5 9.40068 6.5C9.39312 6.5 9.38555 6.5 9.37799 6.5C9.37042 6.5 9.36285 6.5 9.35528 6.5C9.34772 6.5 9.34015 6.5 9.33258 6.5C9.32502 6.5 9.31745 6.5 9.30988 6.5C9.30231 6.5 9.29475 6.5 9.28718 6.5C9.27961 6.5 9.27205 6.5 9.26448 6.5C9.25691 6.5 9.24934 6.5 9.24177 6.5C9.23421 6.5 9.22664 6.5 9.21907 6.5C9.2115 6.5 9.20394 6.5 9.19637 6.5C9.1888 6.5 9.18123 6.5 9.17367 6.5C9.1661 6.5 9.15853 6.5 9.15096 6.5C9.1434 6.5 9.13583 6.5 9.12826 6.5C9.1207 6.5 9.11313 6.5 9.10556 6.5C9.098 6.5 9.09043 6.5 9.08286 6.5C9.0753 6.5 9.06773 6.5 9.06017 6.5C9.0526 6.5 9.04504 6.5 9.03747 6.5C9.02991 6.5 9.02234 6.5 9.01478 6.5C9.00721 6.5 8.99965 6.5 8.99209 6.5C8.98452 6.5 8.97696 6.5 8.9694 6.5C8.96184 6.5 8.95428 6.5 8.94671 6.5C8.93915 6.5 8.93159 6.5 8.92403 6.5C8.91647 6.5 8.90891 6.5 8.90135 6.5C8.89379 6.5 8.88623 6.5 8.87867 6.5C8.87112 6.5 8.86356 6.5 8.856 6.5C8.84844 6.5 8.84089 6.5 8.83333 6.5C8.82578 6.5 8.81822 6.5 8.81067 6.5C8.80311 6.5 8.79556 6.5 8.78801 6.5C8.78045 6.5 8.7729 6.5 8.76535 6.5C8.7578 6.5 8.75025 6.5 8.7427 6.5C8.73515 6.5 8.7276 6.5 8.72005 6.5C8.7125 6.5 8.70496 6.5 8.69741 6.5C8.68986 6.5 8.68232 6.5 8.67478 6.5C8.66723 6.5 8.65969 6.5 8.65214 6.5C8.6446 6.5 8.63706 6.5 8.62952 6.5C8.62198 6.5 8.61444 6.5 8.6069 6.5C8.59936 6.5 8.59183 6.5 8.58429 6.5C8.57675 6.5 8.56922 6.5 8.56168 6.5C8.55415 6.5 8.54662 6.5 8.53908 6.5C8.53155 6.5 8.52402 6.5 8.51649 6.5C8.50896 6.5 8.50143 6.5 8.49391 6.5C8.48638 6.5 8.47885 6.5 8.47133 6.5C8.46381 6.5 8.45628 6.5 8.44876 6.5C8.44124 6.5 8.43372 6.5 8.4262 6.5C8.41868 6.5 8.41116 6.5 8.40364 6.5C8.39613 6.5 8.38861 6.5 8.3811 6.5C8.37359 6.5 8.36607 6.5 8.35856 6.5C8.35105 6.5 8.34354 6.5 8.33603 6.5C8.32853 6.5 8.32102 6.5 8.31352 6.5C8.30601 6.5 8.29851 6.5 8.29101 6.5C8.2835 6.5 8.276 6.5 8.2685 6.5C8.26101 6.5 8.25351 6.5 8.24601 6.5C8.23852 6.5 8.23102 6.5 8.22353 6.5C8.21604 6.5 8.20855 6.5 8.20106 6.5C8.19357 6.5 8.18609 6.5 8.1786 6.5C8.17112 6.5 8.16363 6.5 8.15615 6.5C8.14867 6.5 8.14119 6.5 8.13371 6.5C8.12623 6.5 8.11876 6.5 8.11128 6.5C8.10381 6.5 8.09634 6.5 8.08887 6.5C8.0814 6.5 8.07393 6.5 8.06646 6.5C8.059 6.5 8.05153 6.5 8.04407 6.5C8.03661 6.5 8.02914 6.5 8.02169 6.5C8.01423 6.5 8.00677 6.5 7.99932 6.5C7.99186 6.5 7.98441 6.5 7.97696 6.5C7.96951 6.5 7.96206 6.5 7.95461 6.5C7.94717 6.5 7.93972 6.5 7.93228 6.5C7.92484 6.5 7.9174 6.5 7.90996 6.5C7.90253 6.5 7.89509 6.5 7.88766 6.5C7.88023 6.5 7.8728 6.5 7.86537 6.5C7.85794 6.5 7.85051 6.5 7.84309 6.5C7.83566 6.5 7.82824 6.5 7.82082 6.5C7.81341 6.5 7.80599 6.5 7.79857 6.5C7.79116 6.5 7.78375 6.5 7.77634 6.5C7.76893 6.5 7.76152 6.5 7.75412 6.5C7.74671 6.5 7.73931 6.5 7.73191 6.5C7.72451 6.5 7.71711 6.5 7.70972 6.5C7.70232 6.5 7.69493 6.5 7.68754 6.5C7.68015 6.5 7.67277 6.5 7.66538 6.5C7.658 6.5 7.65062 6.5 7.64324 6.5C7.63586 6.5 7.62848 6.5 7.62111 6.5C7.61374 6.5 7.60637 6.5 7.599 6.5C7.59163 6.5 7.58426 6.5 7.5769 6.5C7.56954 6.5 7.56218 6.5 7.55482 6.5C7.54746 6.5 7.54011 6.5 7.53276 6.5C7.52541 6.5 7.51806 6.5 7.51071 6.5C7.50337 6.5 7.49603 6.5 7.48869 6.5C7.48135 6.5 7.47401 6.5 7.46668 6.5C7.45934 6.5 7.45201 6.5 7.44468 6.5C7.43735 6.5 7.43003 6.5 7.42271 6.5C7.41539 6.5 7.40807 6.5 7.40075 6.5C7.39344 6.5 7.38612 6.5 7.37881 6.5C7.3715 6.5 7.3642 6.5 7.35689 6.5C7.34959 6.5 7.34229 6.5 7.33499 6.5C7.3277 6.5 7.3204 6.5 7.31311 6.5C7.30582 6.5 7.29853 6.5 7.29125 6.5C7.28397 6.5 7.27669 6.5 7.26941 6.5C7.26213 6.5 7.25486 6.5 7.24759 6.5C7.24031 6.5 7.23305 6.5 7.22578 6.5C7.21852 6.5 7.21126 6.5 7.204 6.5C7.19674 6.5 7.18949 6.5 7.18224 6.5C7.17499 6.5 7.16774 6.5 7.1605 6.5C7.15325 6.5 7.14601 6.5 7.13878 6.5C7.13154 6.5 7.12431 6.5 7.11708 6.5C7.10985 6.5 7.10262 6.5 7.0954 6.5C7.08818 6.5 7.08096 6.5 7.07374 6.5C7.06653 6.5 7.05932 6.5 7.05211 6.5C7.0449 6.5 7.0377 6.5 7.0305 6.5C7.0233 6.5 7.0161 6.5 7.00891 6.5C7.00172 6.5 6.99453 6.5 6.98734 6.5C6.98016 6.5 6.97297 6.5 6.9658 6.5C6.95862 6.5 6.95145 6.5 6.94428 6.5C6.93711 6.5 6.92994 6.5 6.92278 6.5C6.91561 6.5 6.90846 6.5 6.9013 6.5C6.89415 6.5 6.887 6.5 6.87985 6.5C6.8727 6.5 6.86556 6.5 6.85842 6.5C6.85128 6.5 6.84415 6.5 6.83702 6.5C6.82989 6.5 6.82276 6.5 6.81564 6.5C6.80852 6.5 6.8014 6.5 6.79429 6.5C6.78717 6.5 6.78006 6.5 6.77296 6.5C6.76585 6.5 6.75875 6.5 6.75165 6.5C6.74455 6.5 6.73746 6.5 6.73037 6.5C6.72328 6.5 6.7162 6.5 6.70912 6.5C6.70204 6.5 6.69496 6.5 6.68789 6.5C6.68082 6.5 6.67375 6.5 6.66669 6.5C6.65962 6.5 6.65256 6.5 6.64551 6.5C6.63846 6.5 6.63141 6.5 6.62436 6.5C6.61731 6.5 6.61027 6.5 6.60324 6.5C6.5962 6.5 6.58917 6.5 6.58214 6.5C6.57511 6.5 6.56809 6.5 6.56107 6.5C6.55405 6.5 6.54704 6.5 6.54003 6.5C6.53302 6.5 6.52601 6.5 6.51901 6.5C6.51201 6.5 6.50502 6.5 6.49802 6.5C6.49103 6.5 6.48405 6.5 6.47707 6.5C6.47008 6.5 6.46311 6.5 6.45613 6.5C6.44916 6.5 6.44219 6.5 6.43523 6.5C6.42827 6.5 6.42131 6.5 6.41436 6.5C6.4074 6.5 6.40045 6.5 6.39351 6.5C6.38657 6.5 6.37963 6.5 6.37269 6.5C6.36576 6.5 6.35883 6.5 6.35191 6.5C6.34498 6.5 6.33806 6.5 6.33115 6.5C6.32423 6.5 6.31733 6.5 6.31042 6.5C6.30352 6.5 6.29662 6.5 6.28972 6.5C6.28283 6.5 6.27594 6.5 6.26906 6.5C6.26217 6.5 6.25529 6.5 6.24842 6.5C6.24154 6.5 6.23467 6.5 6.22781 6.5C6.22095 6.5 6.21409 6.5 6.20723 6.5C6.20038 6.5 6.19353 6.5 6.18669 6.5C6.17985 6.5 6.17301 6.5 6.16618 6.5C6.15934 6.5 6.15252 6.5 6.14569 6.5C6.13887 6.5 6.13206 6.5 6.12524 6.5C6.11843 6.5 6.11163 6.5 6.10483 6.5C6.09802 6.5 6.09123 6.5 6.08444 6.5C6.07765 6.5 6.07086 6.5 6.06409 6.5C6.05731 6.5 6.05053 6.5 6.04376 6.5C6.037 6.5 6.03023 6.5 6.02348 6.5C6.01672 6.5 6.00997 6.5 6.00322 6.5C5.99647 6.5 5.98973 6.5 5.983 6.5C5.97626 6.5 5.96953 6.5 5.96281 6.5C5.95609 6.5 5.94937 6.5 5.94266 6.5C5.93594 6.5 5.92924 6.5 5.92254 6.5C5.91583 6.5 5.90914 6.5 5.90245 6.5C5.89576 6.5 5.88908 6.5 5.8824 6.5C5.87572 6.5 5.86905 6.5 5.86238 6.5C5.85571 6.5 5.84905 6.5 5.8424 6.5C5.83574 6.5 5.82909 6.5 5.82245 6.5C5.81581 6.5 5.80917 6.5 5.80254 6.5C5.79591 6.5 5.78928 6.5 5.78266 6.5C5.77604 6.5 5.76943 6.5 5.76282 6.5C5.75622 6.5 5.74961 6.5 5.74302 6.5C5.73642 6.5 5.72983 6.5 5.72325 6.5C5.71667 6.5 5.71009 6.5 5.70352 6.5C5.69695 6.5 5.69038 6.5 5.68382 6.5C5.67727 6.5 5.67071 6.5 5.66417 6.5C5.65762 6.5 5.65108 6.5 5.64455 6.5C5.63801 6.5 5.63148 6.5 5.62496 6.5C5.61844 6.5 5.61193 6.5 5.60542 6.5C5.59891 6.5 5.5924 6.5 5.58591 6.5C5.57941 6.5 5.57292 6.5 5.56644 6.5C5.55995 6.5 5.55348 6.5 5.54701 6.5C5.54054 6.5 5.53407 6.5 5.52761 6.5C5.52116 6.5 5.5147 6.5 5.50826 6.5C5.50181 6.5 5.49538 6.5 5.48894 6.5C5.48251 6.5 5.47609 6.5 5.46967 6.5C5.46325 6.5 5.45684 6.5 5.45043 6.5C5.44402 6.5 5.43763 6.5 5.43123 6.5C5.42484 6.5 5.41846 6.5 5.41208 6.5C5.4057 6.5 5.39932 6.5 5.39296 6.5C5.38659 6.5 5.38023 6.5 5.37388 6.5C5.36753 6.5 5.36118 6.5 5.35485 6.5C5.34851 6.5 5.34217 6.5 5.33585 6.5C5.32952 6.5 5.32321 6.5 5.31689 6.5C5.31058 6.5 5.30428 6.5 5.29798 6.5C5.29168 6.5 5.28539 6.5 5.27911 6.5C5.27283 6.5 5.26655 6.5 5.26028 6.5C5.25401 6.5 5.24775 6.5 5.24149 6.5C5.23523 6.5 5.22899 6.5 5.22274 6.5C5.2165 6.5 5.21027 6.5 5.20404 6.5C5.19781 6.5 5.19159 6.5 5.18538 6.5C5.17916 6.5 5.17296 6.5 5.16676 6.5C5.16056 6.5 5.15437 6.5 5.14818 6.5C5.142 6.5 5.13582 6.5 5.12965 6.5C5.12348 6.5 5.11732 6.5 5.11116 6.5C5.10501 6.5 5.09886 6.5 5.09272 6.5C5.08658 6.5 5.08044 6.5 5.07432 6.5C5.06819 6.5 5.06207 6.5 5.05596 6.5C5.04985 6.5 5.04374 6.5 5.03765 6.5C5.03155 6.5 5.02546 6.5 5.01938 6.5C5.0133 6.5 5.00722 6.5 5.00115 6.5C4.99509 6.5 4.98903 6.5 4.98298 6.5C4.97692 6.5 4.97088 6.5 4.96484 6.5C4.95881 6.5 4.95278 6.5 4.94675 6.5C4.94073 6.5 4.93472 6.5 4.92871 6.5C4.92271 6.5 4.91671 6.5 4.91072 6.5C4.90473 6.5 4.89874 6.5 4.89277 6.5C4.88679 6.5 4.88082 6.5 4.87486 6.5C4.8689 6.5 4.86295 6.5 4.85701 6.5C4.85106 6.5 4.84513 6.5 4.8392 6.5C4.83327 6.5 4.82735 6.5 4.82143 6.5C4.81552 6.5 4.80962 6.5 4.80372 6.5C4.79782 6.5 4.79193 6.5 4.78605 6.5C4.78017 6.5 4.7743 6.5 4.76843 6.5C4.76256 6.5 4.75671 6.5 4.75086 6.5C4.74501 6.5 4.73917 6.5 4.73333 6.5V7.5Z" fill="#353535"/>
</svg>
