<svg width="18" height="17" viewBox="0 0 18 17" fill="none" xmlns="http://www.w3.org/2000/svg">
<path d="M2.33301 11.3334H7.00967L6.07384 14.1392C5.90551 14.6459 5.99051 15.2075 6.30301 15.6409C6.61551 16.0742 7.12217 16.3334 7.65634 16.3334H8.99967C9.24717 16.3334 9.48134 16.2234 9.64051 16.0334L13.5572 11.3334H15.6663C16.5855 11.3334 17.333 10.5859 17.333 9.66671V2.16671C17.333 1.24754 16.5855 0.500041 15.6663 0.500041H4.57717C4.2381 0.501166 3.90735 0.605174 3.62866 0.79831C3.34996 0.991447 3.13645 1.26462 3.01634 1.58171L0.71884 7.70754C0.683954 7.80111 0.666172 7.90018 0.66634 8.00004V9.66671C0.66634 10.5859 1.41384 11.3334 2.33301 11.3334ZM15.6663 9.66671H13.9997V2.16671H15.6663V9.66671ZM2.33301 8.15087L4.57717 2.16671H12.333V10.1984L8.60967 14.6667H7.65467L8.95634 10.7642C8.9986 10.6389 9.01038 10.5054 8.99072 10.3747C8.97106 10.244 8.92052 10.1198 8.84329 10.0125C8.76606 9.90521 8.66436 9.81788 8.54663 9.75774C8.42891 9.6976 8.29854 9.6664 8.16634 9.66671H2.33301V8.15087Z" fill="#FC2E2E"/>
</svg>
