<svg width="175" height="61" viewBox="0 0 175 61" fill="none" xmlns="http://www.w3.org/2000/svg">
<path d="M2.14844 37V8.5625H12.3633C16.0221 8.5625 18.8021 9.23307 20.7031 10.5742C22.6172 11.9154 23.5742 13.862 23.5742 16.4141C23.5742 17.8854 23.2357 19.1419 22.5586 20.1836C21.8815 21.2253 20.8854 21.9935 19.5703 22.4883C21.0547 22.8789 22.194 23.6081 22.9883 24.6758C23.7826 25.7435 24.1797 27.0456 24.1797 28.582C24.1797 31.3685 23.2943 33.4648 21.5234 34.8711C19.7656 36.2643 17.1549 36.974 13.6914 37H2.14844ZM9.00391 24.9102V31.7266H13.4961C14.7331 31.7266 15.6836 31.4466 16.3477 30.8867C17.0117 30.3138 17.3438 29.513 17.3438 28.4844C17.3438 26.1146 16.1654 24.9232 13.8086 24.9102H9.00391ZM9.00391 20.418H12.5781C14.0755 20.4049 15.1432 20.1315 15.7812 19.5977C16.4193 19.0638 16.7383 18.276 16.7383 17.2344C16.7383 16.0365 16.3932 15.1771 15.7031 14.6562C15.013 14.1224 13.8997 13.8555 12.3633 13.8555H9.00391V20.418ZM42.6367 29.4414C42.6367 28.4388 42.2786 27.6576 41.5625 27.0977C40.8594 26.5378 39.6159 25.9583 37.832 25.3594C36.0482 24.7604 34.5898 24.181 33.457 23.6211C29.7721 21.8112 27.9297 19.3242 27.9297 16.1602C27.9297 14.5846 28.3854 13.1979 29.2969 12C30.2214 10.7891 31.5234 9.85156 33.2031 9.1875C34.8828 8.51042 36.7708 8.17188 38.8672 8.17188C40.9115 8.17188 42.7409 8.53646 44.3555 9.26562C45.9831 9.99479 47.2461 11.0365 48.1445 12.3906C49.043 13.7318 49.4922 15.2682 49.4922 17H42.6562C42.6562 15.8411 42.2982 14.9427 41.582 14.3047C40.8789 13.6667 39.9219 13.3477 38.7109 13.3477C37.487 13.3477 36.5169 13.6211 35.8008 14.168C35.0977 14.7018 34.7461 15.3854 34.7461 16.2188C34.7461 16.9479 35.1367 17.612 35.918 18.2109C36.6992 18.7969 38.0729 19.4089 40.0391 20.0469C42.0052 20.6719 43.6198 21.349 44.8828 22.0781C47.9557 23.849 49.4922 26.2904 49.4922 29.4023C49.4922 31.8893 48.5547 33.8424 46.6797 35.2617C44.8047 36.681 42.2331 37.3906 38.9648 37.3906C36.6602 37.3906 34.5703 36.9805 32.6953 36.1602C30.8333 35.3268 29.4271 34.194 28.4766 32.7617C27.5391 31.3164 27.0703 29.6562 27.0703 27.7812H33.9453C33.9453 29.3047 34.3359 30.431 35.1172 31.1602C35.9115 31.8763 37.194 32.2344 38.9648 32.2344C40.0977 32.2344 40.9896 31.9935 41.6406 31.5117C42.3047 31.0169 42.6367 30.3268 42.6367 29.4414ZM61.6406 32.3125C62.5651 32.3125 63.2812 32.0651 63.7891 31.5703C64.2969 31.0625 64.5443 30.3594 64.5312 29.4609H70.7031C70.7031 31.7786 69.8698 33.6797 68.2031 35.1641C66.5495 36.6484 64.4141 37.3906 61.7969 37.3906C58.724 37.3906 56.3021 36.4271 54.5312 34.5C52.7604 32.5729 51.875 29.9036 51.875 26.4922V26.2188C51.875 24.0833 52.2656 22.2018 53.0469 20.5742C53.8411 18.9336 54.9805 17.6771 56.4648 16.8047C57.9492 15.9193 59.707 15.4766 61.7383 15.4766C64.4857 15.4766 66.6667 16.2383 68.2812 17.7617C69.8958 19.2852 70.7031 21.349 70.7031 23.9531H64.5312C64.5312 22.8594 64.2643 22.0195 63.7305 21.4336C63.1966 20.8477 62.4805 20.5547 61.582 20.5547C59.8763 20.5547 58.8802 21.6419 58.5938 23.8164C58.5026 24.5065 58.457 25.457 58.457 26.668C58.457 28.7904 58.7109 30.2617 59.2188 31.082C59.7266 31.9023 60.5339 32.3125 61.6406 32.3125ZM85.3906 37C85.1562 36.5703 84.9479 35.9388 84.7656 35.1055C83.5547 36.6289 81.862 37.3906 79.6875 37.3906C77.6953 37.3906 76.0026 36.7917 74.6094 35.5938C73.2161 34.3828 72.5195 32.8659 72.5195 31.043C72.5195 28.7513 73.3659 27.0195 75.0586 25.8477C76.7513 24.6758 79.2122 24.0898 82.4414 24.0898H84.4727V22.9766C84.4727 21.0365 83.6328 20.0664 81.9531 20.0664C80.3906 20.0664 79.6094 20.8346 79.6094 22.3711H73.0273C73.0273 20.3268 73.8932 18.6667 75.625 17.3906C77.3698 16.1146 79.5898 15.4766 82.2852 15.4766C84.9805 15.4766 87.1094 16.1341 88.6719 17.4492C90.2344 18.7643 91.0352 20.5677 91.0742 22.8594V32.2148C91.1003 34.1549 91.3997 35.6393 91.9727 36.668V37H85.3906ZM81.2695 32.7031C82.0898 32.7031 82.7669 32.5273 83.3008 32.1758C83.8477 31.8242 84.2383 31.4271 84.4727 30.9844V27.6055H82.5586C80.2669 27.6055 79.1211 28.6341 79.1211 30.6914C79.1211 31.2904 79.3229 31.7786 79.7266 32.1562C80.1302 32.5208 80.6445 32.7031 81.2695 32.7031ZM100.781 15.8672L100.996 18.3477C102.454 16.4336 104.466 15.4766 107.031 15.4766C109.232 15.4766 110.872 16.1341 111.953 17.4492C113.047 18.7643 113.613 20.7435 113.652 23.3867V37H107.051V23.6602C107.051 22.5924 106.836 21.8112 106.406 21.3164C105.977 20.8086 105.195 20.5547 104.062 20.5547C102.773 20.5547 101.816 21.0625 101.191 22.0781V37H94.6094V15.8672H100.781ZM123.359 15.8672L123.574 18.3477C125.033 16.4336 127.044 15.4766 129.609 15.4766C131.81 15.4766 133.451 16.1341 134.531 17.4492C135.625 18.7643 136.191 20.7435 136.23 23.3867V37H129.629V23.6602C129.629 22.5924 129.414 21.8112 128.984 21.3164C128.555 20.8086 127.773 20.5547 126.641 20.5547C125.352 20.5547 124.395 21.0625 123.77 22.0781V37H117.188V15.8672H123.359ZM150.117 37.3906C146.875 37.3906 144.251 36.4271 142.246 34.5C140.241 32.5599 139.238 30.0404 139.238 26.9414V26.3945C139.238 24.2331 139.635 22.3255 140.43 20.6719C141.237 19.0182 142.409 17.7422 143.945 16.8438C145.482 15.9323 147.305 15.4766 149.414 15.4766C152.383 15.4766 154.727 16.401 156.445 18.25C158.164 20.0859 159.023 22.651 159.023 25.9453V28.5039H145.938C146.172 29.6888 146.686 30.6198 147.48 31.2969C148.275 31.974 149.303 32.3125 150.566 32.3125C152.65 32.3125 154.277 31.5833 155.449 30.125L158.457 33.6797C157.637 34.8125 156.471 35.7174 154.961 36.3945C153.464 37.0586 151.849 37.3906 150.117 37.3906ZM149.375 20.5547C147.448 20.5547 146.302 21.8307 145.938 24.3828H152.578V23.875C152.604 22.8203 152.337 22.0065 151.777 21.4336C151.217 20.8477 150.417 20.5547 149.375 20.5547ZM174.473 21.8242L172.305 21.668C170.234 21.668 168.906 22.319 168.32 23.6211V37H161.738V15.8672H167.91L168.125 18.582C169.232 16.5117 170.775 15.4766 172.754 15.4766C173.457 15.4766 174.069 15.5547 174.59 15.7109L174.473 21.8242Z" fill="#353535"/>
<path d="M2.03491 58V50.8677H4.81665C5.76587 50.8677 6.49316 51.0347 6.99854 51.3687C7.5083 51.6982 7.76318 52.1838 7.76318 52.8254C7.76318 53.155 7.66431 53.4539 7.46655 53.7219C7.2688 53.9856 6.97656 54.1877 6.58984 54.3284C7.02051 54.4294 7.36548 54.6272 7.62476 54.9216C7.88843 55.2161 8.02026 55.5676 8.02026 55.9763C8.02026 56.6311 7.77856 57.1321 7.29517 57.4792C6.81616 57.8264 6.13721 58 5.2583 58H2.03491ZM3.25439 54.8689V57.0178H5.27148C5.78125 57.0178 6.16138 56.9233 6.41187 56.7344C6.66675 56.5454 6.79419 56.2795 6.79419 55.9368C6.79419 55.2249 6.27124 54.8689 5.22534 54.8689H3.25439ZM3.25439 53.8933H4.82983C5.97241 53.8933 6.5437 53.5593 6.5437 52.8914C6.5437 52.2234 6.00317 51.8784 4.92212 51.8564H3.25439V53.8933ZM14.0386 58C13.9683 57.8594 13.9111 57.6089 13.8672 57.2485C13.3003 57.8374 12.6235 58.1318 11.8369 58.1318C11.1338 58.1318 10.5559 57.9341 10.1033 57.5386C9.65503 57.1387 9.43091 56.6333 9.43091 56.0225C9.43091 55.2798 9.71216 54.7041 10.2747 54.2954C10.8416 53.8823 11.637 53.6758 12.6609 53.6758H13.8474V53.1155C13.8474 52.6892 13.72 52.3508 13.4651 52.1003C13.2102 51.8455 12.8345 51.718 12.3379 51.718C11.9028 51.718 11.5381 51.8279 11.2437 52.0476C10.9492 52.2673 10.802 52.5332 10.802 52.8452H9.57593C9.57593 52.4893 9.70117 52.1465 9.95166 51.8169C10.2065 51.4829 10.5493 51.2192 10.98 51.0259C11.415 50.8325 11.8918 50.7358 12.4104 50.7358C13.2322 50.7358 13.876 50.9424 14.3418 51.3555C14.8076 51.7642 15.0493 52.3289 15.0669 53.0496V56.3323C15.0669 56.9871 15.1504 57.5078 15.3174 57.8945V58H14.0386ZM12.0149 57.0706C12.3972 57.0706 12.7598 56.9717 13.1025 56.7739C13.4453 56.5762 13.6936 56.3191 13.8474 56.0027V54.5393H12.8916C11.3975 54.5393 10.6504 54.9766 10.6504 55.8511C10.6504 56.2334 10.7778 56.5322 11.0327 56.7476C11.2876 56.9629 11.615 57.0706 12.0149 57.0706ZM18.3101 50.8677V57.0046H20.9204V50.8677H22.1399V57.0046H24.7437V50.8677H25.9697V58H17.084V50.8677H18.3101ZM37.0769 58H35.8574V51.8762H32.5747V58H31.3486V50.8677H37.0769V58ZM38.7117 54.3679C38.7117 53.6692 38.8479 53.0408 39.1204 52.4827C39.3972 51.9246 39.7795 51.4939 40.2673 51.1907C40.7595 50.8875 41.3198 50.7358 41.9482 50.7358C42.9194 50.7358 43.7039 51.072 44.3015 51.7444C44.9036 52.4167 45.2046 53.311 45.2046 54.4272V54.5129C45.2046 55.2073 45.0706 55.8313 44.8025 56.385C44.5388 56.9343 44.1587 57.3628 43.6621 57.6704C43.1699 57.978 42.603 58.1318 41.9614 58.1318C40.9946 58.1318 40.2102 57.7957 39.6082 57.1233C39.0105 56.4509 38.7117 55.561 38.7117 54.4536V54.3679ZM39.9377 54.5129C39.9377 55.304 40.1201 55.939 40.4849 56.418C40.854 56.897 41.3462 57.1365 41.9614 57.1365C42.5811 57.1365 43.0732 56.8948 43.438 56.4114C43.8027 55.9236 43.9851 55.2424 43.9851 54.3679C43.9851 53.5857 43.7983 52.9529 43.4248 52.4695C43.0557 51.9817 42.5635 51.7378 41.9482 51.7378C41.3462 51.7378 40.8606 51.9773 40.4915 52.4563C40.1223 52.9353 39.9377 53.6208 39.9377 54.5129ZM50.8406 56.385L53.2664 50.8677H54.7891V58H53.5696V52.8123L51.2625 58H50.4187L48.0654 52.7002V58H46.8459V50.8677H48.428L50.8406 56.385ZM56.4304 54.3679C56.4304 53.6692 56.5667 53.0408 56.8391 52.4827C57.116 51.9246 57.4983 51.4939 57.9861 51.1907C58.4783 50.8875 59.0386 50.7358 59.667 50.7358C60.6382 50.7358 61.4226 51.072 62.0203 51.7444C62.6223 52.4167 62.9233 53.311 62.9233 54.4272V54.5129C62.9233 55.2073 62.7893 55.8313 62.5212 56.385C62.2576 56.9343 61.8774 57.3628 61.3809 57.6704C60.8887 57.978 60.3218 58.1318 59.6802 58.1318C58.7134 58.1318 57.929 57.7957 57.3269 57.1233C56.7292 56.4509 56.4304 55.561 56.4304 54.4536V54.3679ZM57.6565 54.5129C57.6565 55.304 57.8389 55.939 58.2036 56.418C58.5728 56.897 59.0649 57.1365 59.6802 57.1365C60.2998 57.1365 60.792 56.8948 61.1567 56.4114C61.5215 55.9236 61.7039 55.2424 61.7039 54.3679C61.7039 53.5857 61.5171 52.9529 61.1436 52.4695C60.7744 51.9817 60.2822 51.7378 59.667 51.7378C59.0649 51.7378 58.5793 51.9773 58.2102 52.4563C57.8411 52.9353 57.6565 53.6208 57.6565 54.5129ZM65.7117 50.8677V57.0046H68.322V50.8677H69.5415V57.0046H72.1453V50.8677H73.3713V57.0046H74.3733L74.2546 60.116H73.1604V58H64.4856V50.8677H65.7117ZM81.4463 58H80.2268V54.9546H76.9507V58H75.7246V50.8677H76.9507V53.9592H80.2268V50.8677H81.4463V58ZM88.0249 50.8677H89.2444V58H88.0249V52.7991L84.7356 58H83.5161V50.8677H84.7356V56.0752L88.0249 50.8677ZM93.4236 54.9612H92.5337V58H91.3076V50.8677H92.5337V53.8867H93.3313L95.7307 50.8677H97.2073L94.386 54.2954L97.4446 58H95.8955L93.4236 54.9612ZM101.953 58V50.8677H104.735C105.684 50.8677 106.412 51.0347 106.917 51.3687C107.427 51.6982 107.682 52.1838 107.682 52.8254C107.682 53.155 107.583 53.4539 107.385 53.7219C107.187 53.9856 106.895 54.1877 106.508 54.3284C106.939 54.4294 107.284 54.6272 107.543 54.9216C107.807 55.2161 107.939 55.5676 107.939 55.9763C107.939 56.6311 107.697 57.1321 107.214 57.4792C106.735 57.8264 106.056 58 105.177 58H101.953ZM103.173 54.8689V57.0178H105.19C105.7 57.0178 106.08 56.9233 106.33 56.7344C106.585 56.5454 106.713 56.2795 106.713 55.9368C106.713 55.2249 106.19 54.8689 105.144 54.8689H103.173ZM103.173 53.8933H104.748C105.891 53.8933 106.462 53.5593 106.462 52.8914C106.462 52.2234 105.922 51.8784 104.841 51.8564H103.173V53.8933ZM117.009 56.385L119.435 50.8677H120.958V58H119.738V52.8123L117.431 58H116.587L114.234 52.7002V58H113.014V50.8677H114.596L117.009 56.385ZM127.325 58C127.255 57.8594 127.198 57.6089 127.154 57.2485C126.587 57.8374 125.91 58.1318 125.124 58.1318C124.42 58.1318 123.843 57.9341 123.39 57.5386C122.942 57.1387 122.718 56.6333 122.718 56.0225C122.718 55.2798 122.999 54.7041 123.561 54.2954C124.128 53.8823 124.924 53.6758 125.948 53.6758H127.134V53.1155C127.134 52.6892 127.007 52.3508 126.752 52.1003C126.497 51.8455 126.121 51.718 125.625 51.718C125.189 51.718 124.825 51.8279 124.53 52.0476C124.236 52.2673 124.089 52.5332 124.089 52.8452H122.863C122.863 52.4893 122.988 52.1465 123.238 51.8169C123.493 51.4829 123.836 51.2192 124.267 51.0259C124.702 50.8325 125.178 50.7358 125.697 50.7358C126.519 50.7358 127.163 50.9424 127.628 51.3555C128.094 51.7642 128.336 52.3289 128.354 53.0496V56.3323C128.354 56.9871 128.437 57.5078 128.604 57.8945V58H127.325ZM125.302 57.0706C125.684 57.0706 126.046 56.9717 126.389 56.7739C126.732 56.5762 126.98 56.3191 127.134 56.0027V54.5393H126.178C124.684 54.5393 123.937 54.9766 123.937 55.8511C123.937 56.2334 124.064 56.5322 124.319 56.7476C124.574 56.9629 124.902 57.0706 125.302 57.0706ZM134.873 51.8762H131.583V58H130.357V50.8677H134.873V51.8762ZM140.337 58C140.267 57.8594 140.21 57.6089 140.166 57.2485C139.599 57.8374 138.922 58.1318 138.136 58.1318C137.433 58.1318 136.855 57.9341 136.402 57.5386C135.954 57.1387 135.73 56.6333 135.73 56.0225C135.73 55.2798 136.011 54.7041 136.573 54.2954C137.14 53.8823 137.936 53.6758 138.96 53.6758H140.146V53.1155C140.146 52.6892 140.019 52.3508 139.764 52.1003C139.509 51.8455 139.133 51.718 138.637 51.718C138.202 51.718 137.837 51.8279 137.542 52.0476C137.248 52.2673 137.101 52.5332 137.101 52.8452H135.875C135.875 52.4893 136 52.1465 136.25 51.8169C136.505 51.4829 136.848 51.2192 137.279 51.0259C137.714 50.8325 138.191 50.7358 138.709 50.7358C139.531 50.7358 140.175 50.9424 140.641 51.3555C141.106 51.7642 141.348 52.3289 141.366 53.0496V56.3323C141.366 56.9871 141.449 57.5078 141.616 57.8945V58H140.337ZM138.314 57.0706C138.696 57.0706 139.059 56.9717 139.401 56.7739C139.744 56.5762 139.992 56.3191 140.146 56.0027V54.5393H139.19C137.696 54.5393 136.949 54.9766 136.949 55.8511C136.949 56.2334 137.077 56.5322 137.332 56.7476C137.586 56.9629 137.914 57.0706 138.314 57.0706ZM147.199 52.8188C147.199 52.4849 147.072 52.2212 146.817 52.0278C146.562 51.8301 146.213 51.7312 145.769 51.7312C145.338 51.7312 144.978 51.8433 144.688 52.0674C144.402 52.2915 144.26 52.5552 144.26 52.8584H143.047C143.047 52.2388 143.306 51.7312 143.824 51.3357C144.343 50.9402 144.991 50.7424 145.769 50.7424C146.604 50.7424 147.254 50.9226 147.72 51.283C148.186 51.6389 148.419 52.1487 148.419 52.8123C148.419 53.1331 148.322 53.4275 148.129 53.6956C147.936 53.9636 147.661 54.1768 147.305 54.335C148.135 54.6162 148.551 55.1699 148.551 55.9961C148.551 56.6509 148.298 57.1694 147.793 57.5518C147.287 57.9341 146.613 58.1252 145.769 58.1252C144.947 58.1252 144.268 57.9253 143.732 57.5254C143.2 57.1211 142.935 56.5762 142.935 55.8906H144.147C144.147 56.2378 144.301 56.5366 144.609 56.7871C144.921 57.0332 145.308 57.1562 145.769 57.1562C146.235 57.1562 146.611 57.0486 146.896 56.8333C147.182 56.6179 147.325 56.3389 147.325 55.9961C147.325 55.5962 147.204 55.3105 146.962 55.1392C146.725 54.9634 146.354 54.8755 145.848 54.8755H144.629V53.8472H145.954C146.784 53.8252 147.199 53.4824 147.199 52.8188ZM154.747 50.8677H155.967V58H154.747V52.7991L151.458 58H150.238V50.8677H151.458V56.0752L154.747 50.8677ZM163.751 58H162.532V54.9546H159.256V58H158.03V50.8677H159.256V53.9592H162.532V50.8677H163.751V58ZM168.676 58.1318C167.709 58.1318 166.922 57.8154 166.316 57.1826C165.709 56.5454 165.406 55.6951 165.406 54.6316V54.4075C165.406 53.7 165.54 53.0693 165.808 52.5156C166.081 51.9575 166.458 51.5225 166.942 51.2104C167.43 50.894 167.957 50.7358 168.524 50.7358C169.451 50.7358 170.172 51.0413 170.686 51.6521C171.2 52.2629 171.457 53.1375 171.457 54.2756V54.7832H166.625C166.643 55.4863 166.847 56.0554 167.239 56.4905C167.634 56.9211 168.135 57.1365 168.741 57.1365C169.172 57.1365 169.537 57.0486 169.836 56.8728C170.135 56.697 170.396 56.4641 170.62 56.1741L171.365 56.7542C170.767 57.6726 169.871 58.1318 168.676 58.1318ZM168.524 51.7378C168.032 51.7378 167.619 51.918 167.285 52.2783C166.951 52.6343 166.744 53.1353 166.665 53.7812H170.238V53.689C170.203 53.0693 170.036 52.5903 169.737 52.252C169.438 51.9092 169.034 51.7378 168.524 51.7378Z" fill="#353535"/>
</svg>
